<?xml version="1.0" encoding="UTF-8"?>
<svg version="1.1" xmlns="http://www.w3.org/2000/svg" width="511" height="488">
<path d="M0 0 C16.28070303 -0.02332902 32.56140067 -0.04097919 48.84211636 -0.05181217 C56.40101619 -0.05697512 63.95990565 -0.0640178 71.51879883 -0.07543945 C78.10479666 -0.08538632 84.69078698 -0.09185343 91.27679211 -0.09408849 C94.76613071 -0.0953956 98.25544784 -0.09848142 101.74477959 -0.10573006 C105.63381232 -0.11374398 109.52282378 -0.11399114 113.41186523 -0.11352539 C114.57711227 -0.11712067 115.74235931 -0.12071594 116.94291687 -0.12442017 C118.52263275 -0.12235817 118.52263275 -0.12235817 120.13426208 -0.12025452 C121.05513328 -0.12117631 121.97600447 -0.1220981 122.92478085 -0.12304783 C125 0 125 0 126 1 C126.09696917 3.17692611 126.12186746 5.35706393 126.12025452 7.53614807 C126.12153615 8.57261023 126.12153615 8.57261023 126.12284368 9.63001102 C126.12450047 11.9624322 126.1189739 14.29478263 126.11352539 16.62719727 C126.11324354 18.29234821 126.11340122 19.95749928 126.1139679 21.62265015 C126.11425594 26.15758106 126.10835816 30.69248576 126.10139394 35.22741055 C126.09516148 39.96133369 126.09455669 44.69525736 126.09336853 49.42918396 C126.09025489 58.400021 126.08204108 67.37084592 126.07201904 76.34167761 C126.0608589 86.55190392 126.0553477 96.7621308 126.05032361 106.97236168 C126.03985849 127.98158123 126.02225843 148.99078985 126 170 C127.28051396 169.99861731 127.28051396 169.99861731 128.5868969 169.99720669 C149.33376643 169.97514737 170.08063396 169.95858644 190.82751274 169.94818783 C200.86043595 169.94302582 210.89335134 169.93598491 220.92626953 169.92456055 C229.66829722 169.91461083 238.41031926 169.90814588 247.15235245 169.90591151 C251.78358099 169.90460489 256.41479333 169.90152212 261.04601669 169.89426994 C265.40106553 169.8875052 269.75609143 169.88538397 274.11114502 169.88689232 C275.71318817 169.8866162 277.31523204 169.88461376 278.91727066 169.88079453 C281.09737204 169.8758502 283.27738579 169.87700447 285.45748901 169.87974548 C286.67978651 169.87882369 287.90208401 169.8779019 289.16142082 169.87695217 C292 170 292 170 294 171 C294.02332889 187.54147069 294.04097912 204.08293606 294.05181217 220.62441921 C294.05697515 228.30438727 294.06401789 235.98434513 294.07543945 243.66430664 C294.08538623 250.35577989 294.09185341 257.04724576 294.09408849 263.7387262 C294.09539561 267.28395601 294.09848153 270.82916468 294.10573006 274.37438774 C294.1137438 278.32568645 294.11399114 282.2769642 294.11352539 286.22827148 C294.11712067 287.41222 294.12071594 288.59616852 294.12442017 289.81599426 C294.1230455 290.88596649 294.12167084 291.95593872 294.12025452 293.05833435 C294.12163721 294.46176417 294.12163721 294.46176417 294.12304783 295.8935461 C294 298 294 298 293 299 C290.39586163 299.09910612 287.81809525 299.13266589 285.2134552 299.12457275 C284.38787304 299.1259829 283.56229088 299.12739305 282.71169108 299.12884593 C279.92341858 299.13251885 277.13519632 299.12915387 274.34692383 299.12597656 C272.35653646 299.12737039 270.36614939 299.12926909 268.37576294 299.13163757 C264.07813593 299.13614475 259.78051849 299.13799088 255.48288918 299.13809967 C248.68873788 299.13923701 241.89464131 299.15205366 235.10050964 299.16766357 C233.95530548 299.17023643 232.81010132 299.17280928 231.63019401 299.1754601 C229.28779661 299.18072702 226.94539926 299.1860125 224.60300195 299.19131613 C208.77821372 299.22646354 192.95349258 299.25297809 177.12866211 299.25048828 C166.46487657 299.24890065 155.80127657 299.2649151 145.13755053 299.30119491 C139.49113415 299.31967639 133.84502759 299.32897886 128.19858742 299.31671906 C122.88546402 299.30529567 117.57289528 299.31695523 112.25984573 299.34635353 C110.30956844 299.35300323 108.35924052 299.35111174 106.40898323 299.34005547 C103.74581143 299.32621042 101.08451894 299.3430469 98.42146301 299.36749268 C97.64975968 299.3561373 96.87805634 299.34478192 96.08296806 299.33308244 C90.23990703 299.43736032 87.98249302 301.0433197 84 305 C83.13375 305.845625 82.2675 306.69125 81.375 307.5625 C79.84289231 309.13492631 78.32119379 310.71759514 76.8125 312.3125 C75 314 75 314 73 314 C73 314.66 73 315.32 73 316 C76.01362047 316.87440596 78.68606931 317.12181653 81.81944275 317.11352539 C82.78746323 317.1134549 83.7554837 317.1133844 84.75283813 317.11331177 C85.80885223 317.10814545 86.86486633 317.10297913 87.95288086 317.09765625 C89.07065414 317.09619598 90.18842743 317.09473572 91.34007263 317.0932312 C93.77144244 317.08942282 96.20280946 317.08330376 98.63416862 317.07516479 C102.50062996 317.06238169 106.36705686 317.05587875 110.23353577 317.05102539 C119.16162515 317.03861981 128.08968433 317.01712814 137.0177536 316.99479675 C145.81378572 316.97284948 154.60980202 316.95501226 163.40585518 316.94406128 C167.18139596 316.93766261 170.95688295 316.9251467 174.73240662 316.91235352 C188.52068223 316.8835678 202.23548217 317.17639107 216 318 C215.82597656 316.90558594 215.65195312 315.81117188 215.47265625 314.68359375 C215.04392685 311.34233898 215.12642283 309.2031163 216 306 C219.2180665 304.92731117 221.56293914 304.87076241 224.9453125 304.8671875 C226.10417969 304.86589844 227.26304687 304.86460937 228.45703125 304.86328125 C230.27267578 304.86908203 230.27267578 304.86908203 232.125 304.875 C233.34316406 304.87113281 234.56132812 304.86726563 235.81640625 304.86328125 C237.55083984 304.86521484 237.55083984 304.86521484 239.3203125 304.8671875 C240.38523926 304.86831543 241.45016602 304.86944336 242.54736328 304.87060547 C245 305 245 305 246 306 C246.08871273 309.02977804 246.1151935 312.03667022 246.09765625 315.06640625 C246.09553383 316.42934059 246.09553383 316.42934059 246.09336853 317.81980896 C246.08775193 320.73407221 246.07519665 323.64825981 246.0625 326.5625 C246.05748714 328.53320202 246.05292386 330.50390524 246.04882812 332.47460938 C246.03777711 337.31643559 246.02050138 342.15820495 246 347 C243.71498175 348.14250912 242.48085583 348.11914241 239.94326591 348.10743046 C239.0893353 348.10593811 238.23540468 348.10444576 237.35559738 348.10290819 C236.41203168 348.0961044 235.46846597 348.08930061 234.49630737 348.08229065 C232.99916393 348.07744696 232.99916393 348.07744696 231.47177517 348.07250541 C228.10598283 348.06038024 224.74027009 348.04101787 221.37451172 348.02172852 C218.97030818 348.01159103 216.56610274 348.00189679 214.16189575 347.99261475 C208.97482481 347.97158632 203.78777801 347.94745648 198.60073471 347.92053413 C191.10108507 347.88161398 183.60141888 347.84824311 176.10173692 347.81623887 C163.93482969 347.7641664 151.76794774 347.70758846 139.60107422 347.64819336 C127.78012069 347.59049655 115.95916035 347.53491159 104.13818359 347.48217773 C103.40988212 347.47892802 102.68158065 347.4756783 101.93120943 347.4723301 C98.27763747 347.45604074 94.62406532 347.43979301 90.97049308 347.42356598 C60.64696406 347.28883276 30.32347353 347.14671964 0 347 C0.80526271 343.14423467 1.94459121 341.85393052 4.99609375 339.30859375 C12.26547766 332.98947303 18.99997904 326.14967467 25.79858398 319.33178711 C28.08527577 317.03967019 30.37734864 314.75302962 32.66992188 312.46679688 C34.1253213 311.01073775 35.58041109 309.55436905 37.03515625 308.09765625 C37.72045914 307.41437759 38.40576202 306.73109894 39.11183167 306.02711487 C39.74016403 305.39563034 40.3684964 304.76414581 41.01586914 304.11352539 C41.56972794 303.558871 42.12358673 303.00421661 42.69422913 302.43275452 C44.10654597 301.01352952 44.10654597 301.01352952 45 299 C45.66 299 46.32 299 47 299 C47.34611328 298.14728516 47.34611328 298.14728516 47.69921875 297.27734375 C49.33121205 294.42013025 51.32679067 292.71280628 53.8125 290.5625 C57.33065969 287.4727695 60.73195128 284.35637436 64 281 C65.16530771 279.83197596 66.33208356 278.66541555 67.5 277.5 C68.0465625 276.9534375 68.593125 276.406875 69.15625 275.84375 C69.7646875 275.2353125 70.373125 274.626875 71 274 C71.7034212 273.1493739 72.4068424 272.29874781 73.1315794 271.42234516 C76.69419465 268.41376134 79.28253653 268.30820685 83.73847961 268.39872742 C84.51045958 268.39445529 85.28243955 268.39018317 86.07781285 268.38578159 C88.660948 268.37755482 91.24245429 268.40502963 93.82543945 268.43237305 C95.67836977 268.43378359 97.53130288 268.43299141 99.38423157 268.43016052 C104.41294544 268.42872522 109.44106369 268.45813368 114.46963906 268.49303031 C119.72534943 268.52427465 124.98107327 268.52722304 130.23686218 268.53315735 C140.18871426 268.54870142 150.14029188 268.58973763 160.09202307 268.6399048 C171.42199351 268.69578063 182.75197701 268.72328036 194.08205092 268.74838197 C217.38822118 268.80065296 240.69401519 268.89235187 264 269 C264 246.56 264 224.12 264 201 C208.56 201 153.12 201 96 201 C95.15115437 196.75577187 94.88842373 193.41364351 94.91770935 189.13468933 C94.92093848 188.45663107 94.92416761 187.7785728 94.92749459 187.07996732 C94.93952766 184.81521596 94.95890898 182.55058833 94.97827148 180.28588867 C94.98841873 178.65955877 94.99811192 177.03322599 95.00738525 175.40689087 C95.03382157 170.99613078 95.06661016 166.58543806 95.10053515 162.17473006 C95.13492245 157.56363883 95.16347341 152.95251156 95.19264221 148.34138489 C95.24875279 139.61148405 95.3101158 130.88162834 95.37336355 122.15177661 C95.4451192 112.21233572 95.51102299 102.27285873 95.57643402 92.33337438 C95.71110901 71.88886771 95.85390921 51.44442851 96 31 C74.22 31.33 52.44 31.66 30 32 C30.01047363 37.60830811 30.02094727 43.21661621 30.03173828 48.99487305 C30.06483191 67.49494264 30.08705299 85.99501337 30.10362434 104.49510479 C30.11394149 115.71509496 30.12801022 126.93505711 30.15087891 138.1550293 C30.17079933 147.93316234 30.18371325 157.71127509 30.18817699 167.48942786 C30.19078665 172.66794681 30.19692964 177.84640771 30.21146011 183.02490807 C30.22502271 187.8978914 30.22922531 192.77079269 30.22621536 197.64379311 C30.22676612 199.4332486 30.23075142 201.22270681 30.23841095 203.012146 C30.24835149 205.45401446 30.24597215 207.89557257 30.24050903 210.33744812 C30.24633472 211.0466003 30.2521604 211.75575247 30.25816262 212.48639411 C30.22760458 217.53476912 29.68094814 221.28481667 26.08203125 224.95703125 C25.33308594 225.56933594 24.58414063 226.18164062 23.8125 226.8125 C19.91806619 230.11020605 16.62711836 233.57659209 13.41015625 237.53125 C12.94480469 238.0159375 12.47945312 238.500625 12 239 C11.34 239 10.68 239 10 239 C9.67128906 239.82177734 9.67128906 239.82177734 9.3359375 240.66015625 C7.57335876 243.74724592 5.17031001 246.00271003 2.625 248.4375 C-0.8477844 251.78492988 -3.99328628 255.22427355 -7 259 C-8.11330289 260.03609396 -9.25741009 261.04066594 -10.4375 262 C-16.12983994 266.6489644 -21.01505509 272.1209462 -26 277.5 C-29.93133349 281.74214405 -33.88799279 285.93244692 -38 290 C-38.556875 290.598125 -39.11375 291.19625 -39.6875 291.8125 C-41 293 -41 293 -43 293 C-43.2475 293.639375 -43.495 294.27875 -43.75 294.9375 C-45 297 -45 297 -49 298 C-49 216.16 -49 134.32 -49 50 C-44.90104617 48.97526154 -41.20560383 48.8557267 -37.0234375 48.8671875 C-35.87374985 48.86575241 -35.87374985 48.86575241 -34.70083618 48.86428833 C-33.08538735 48.86360937 -31.46993575 48.86544382 -29.85449219 48.86962891 C-27.37689126 48.8749959 -24.89947041 48.86966681 -22.421875 48.86328125 C-20.8515621 48.86394179 -19.28124931 48.86522246 -17.7109375 48.8671875 C-16.96822601 48.86516327 -16.22551453 48.86313904 -15.46029663 48.86105347 C-10.2299426 48.8850287 -10.2299426 48.8850287 -8 50 C-7.97534254 54.1117256 -7.95716041 58.22342278 -7.94506836 62.33520508 C-7.9400292 63.73495228 -7.93319784 65.1346942 -7.92456055 66.53442383 C-7.9124768 68.54245777 -7.90730193 70.55052957 -7.90234375 72.55859375 C-7.89710693 73.76829834 -7.89187012 74.97800293 -7.88647461 76.22436523 C-8 79 -8 79 -9 80 C-12.3 80 -15.6 80 -19 80 C-19 127.85 -19 175.7 -19 225 C-18.34 225 -17.68 225 -17 225 C-17 224.34 -17 223.68 -17 223 C-15.53125 221.58984375 -15.53125 221.58984375 -13.5 219.9375 C-12.80275598 219.32608689 -12.10551195 218.71467379 -11.38713932 218.08473301 C-9.90906007 216.79389901 -8.39846199 215.53816453 -6.84191799 214.34311581 C-2.25118599 210.23248483 -0.5424458 206.6244908 -0.12056363 200.60543454 C0.01762952 196.13043332 -0.03382522 191.66740993 -0.10766602 187.19165039 C-0.11156315 185.17389288 -0.11191262 183.15612587 -0.10899353 181.1383667 C-0.11096387 175.67759377 -0.16203278 170.21825846 -0.22178006 164.75785375 C-0.27562024 159.0427143 -0.28315516 153.3275202 -0.2953949 147.61216736 C-0.32539005 136.79495092 -0.3953174 125.97838928 -0.48038954 115.16148037 C-0.59426369 100.44806148 -0.65265053 85.73444581 -0.71164691 71.02072227 C-0.72580103 67.49309777 -0.74014296 63.96547412 -0.75462341 60.43785095 C-0.7592772 59.29474707 -0.763931 58.15164318 -0.76872581 56.97389978 C-0.79773487 50.16446482 -0.83676917 43.35517584 -0.88495362 36.54584992 C-0.91462455 32.32187112 -0.94083769 28.09787411 -0.96676064 23.87387085 C-0.97986192 21.90898293 -0.99475831 19.94410608 -1.01153946 17.97924614 C-1.03428806 15.30701882 -1.05104531 12.63481797 -1.06642151 9.96253967 C-1.07479131 9.17686003 -1.08316111 8.39118039 -1.09178454 7.58169228 C-1.11389467 2.22778934 -1.11389467 2.22778934 0 0 Z " fill="#FAF8F9" transform="translate(145,66)"/>
<path d="M0 0 C0.81976822 0.00202423 1.63953644 0.00404846 2.48414612 0.00613403 C3.32143753 0.00517731 4.15872894 0.00422058 5.02139282 0.00323486 C6.79600601 0.00255298 8.57062168 0.00440781 10.3452301 0.00857544 C13.06672257 0.01391694 15.78804949 0.00863418 18.50953674 0.00222778 C20.23024023 0.00288869 21.95094362 0.00417013 23.67164612 0.00613403 C24.48939011 0.0041098 25.30713409 0.00208557 26.1496582 0 C31.91439222 0.02399146 31.91439222 0.02399146 34.14430237 1.13894653 C34.14430237 56.90894653 34.14430237 112.67894653 34.14430237 170.13894653 C72.39371498 170.17676385 72.39371498 170.17676385 110.63664055 169.89262009 C114.28337101 169.84733229 117.93013135 169.80720145 121.57693481 169.76824951 C131.89513759 169.65790098 142.21327699 169.5443241 152.53126526 169.41531372 C158.95599121 169.33533913 165.38075905 169.26508826 171.80566597 169.20137405 C174.22310134 169.17553092 176.6405004 169.14601044 179.05784416 169.11268234 C182.3853858 169.06711916 185.71283151 169.03391501 189.0405426 169.00369263 C190.02653946 168.98715134 191.01253632 168.97061005 192.02841187 168.9535675 C192.92790558 168.94790268 193.82739929 168.94223785 194.75415039 168.93640137 C195.53449363 168.92718344 196.31483686 168.91796551 197.11882687 168.90846825 C199.14430237 169.13894653 199.14430237 169.13894653 202.14430237 171.13894653 C202.50506592 172.93597412 202.50506592 172.93597412 202.48487854 175.12966919 C202.48465195 175.95036896 202.48442535 176.77106873 202.48419189 177.61663818 C202.46870804 178.50314056 202.45322418 179.38964294 202.43727112 180.30300903 C202.43302628 181.21021698 202.42878143 182.11742493 202.42440796 183.05212402 C202.40758369 185.95636385 202.36992497 188.85991563 202.33180237 191.76394653 C202.31676036 193.73008236 202.30307112 195.69622904 202.29078674 197.66238403 C202.26021664 202.48838469 202.20150317 207.3128934 202.14430237 212.13894653 C192.24430237 212.13894653 182.34430237 212.13894653 172.14430237 212.13894653 C171.24735443 208.55115478 171.06126119 205.79275816 171.14430237 202.13894653 C170.2897046 202.13471459 169.43510683 202.13048265 168.55461216 202.12612247 C147.79136876 202.02296313 127.02816021 201.91434778 106.26497746 201.79960728 C96.22419479 201.74425293 86.18340857 201.69076736 76.14259338 201.64163208 C67.39432702 201.59881727 58.64608705 201.55254622 49.89786142 201.50206798 C45.26276787 201.47544519 40.62767963 201.45059166 35.99255562 201.42987251 C31.63502191 201.41033971 27.27753855 201.38620621 22.92004967 201.35845566 C21.31598446 201.34906737 19.71190817 201.34139854 18.10782623 201.33552742 C15.92734797 201.32729628 13.7469929 201.31302841 11.56655884 201.29716492 C10.34333955 201.29071237 9.12012026 201.28425982 7.85983372 201.27761173 C5.14430237 201.13894653 5.14430237 201.13894653 4.14430237 200.13894653 C4.0473332 197.96202042 4.02243491 195.78188261 4.02404785 193.60279846 C4.02319343 192.91182369 4.022339 192.22084891 4.02145869 191.50893551 C4.0198019 189.17651433 4.02532847 186.8441639 4.03077698 184.51174927 C4.03105883 182.84659832 4.03090115 181.18144726 4.03033447 179.51629639 C4.03004643 174.98136547 4.03594421 170.44646077 4.04290843 165.91153598 C4.04914089 161.17761285 4.04974568 156.44368918 4.05093384 151.70976257 C4.05404747 142.73892553 4.06226129 133.76810062 4.07228333 124.79726893 C4.08344347 114.58704262 4.08895466 104.37681574 4.09397876 94.16658485 C4.10444388 73.1573653 4.12204394 52.14815668 4.14430237 31.13894653 C3.43402893 31.1505481 2.72375549 31.16214966 1.99195862 31.17410278 C1.07285706 31.18312622 0.15375549 31.19214966 -0.79319763 31.20144653 C-1.70972107 31.2130481 -2.62624451 31.22464966 -3.57054138 31.23660278 C-5.85569763 31.13894653 -5.85569763 31.13894653 -6.85569763 30.13894653 C-6.95573052 28.0054148 -6.98650811 25.86857112 -6.98851013 23.73269653 C-6.98979919 22.43203247 -6.99108826 21.13136841 -6.99241638 19.79129028 C-6.99032166 19.11050415 -6.98822693 18.42971802 -6.98606873 17.728302 C-6.98072004 15.64766138 -6.98601443 13.56723664 -6.99241638 11.48660278 C-6.99112732 10.18593872 -6.98983826 8.88527466 -6.98851013 7.54519653 C-6.9873822 6.34185669 -6.98625427 5.13851685 -6.98509216 3.89871216 C-6.7514955 -1.08350797 -4.41546741 0.01845293 0 0 Z " fill="#FBF9F9" transform="translate(188.85569763183594,114.86105346679688)"/>
<path d="M0 0 C0.33 0 0.66 0 1 0 C1 6.93 1 13.86 1 21 C2.32 21.33 3.64 21.66 5 22 C3 32 3 32 2.45898438 34.3359375 C1.98300652 37.09863449 1.97394033 39.50486619 2.12109375 42.30078125 C2.16943359 43.27724609 2.21777344 44.25371094 2.26757812 45.25976562 C2.32365234 46.26716797 2.37972656 47.27457031 2.4375 48.3125 C2.48970703 49.33923828 2.54191406 50.36597656 2.59570312 51.42382812 C2.72492666 53.94956087 2.85987291 56.47485261 3 59 C5.72188238 60.36094119 7.85074438 60.11969369 10.89903259 60.11352539 C12.78511734 60.11341965 12.78511734 60.11341965 14.70930481 60.11331177 C16.11080964 60.10817713 17.51231415 60.10295569 18.91381836 60.09765625 C20.38393097 60.0957378 21.85404423 60.09427366 23.32415771 60.0932312 C26.49605955 60.09006425 29.66793493 60.08378621 32.83982658 60.07516479 C37.86274391 60.06165532 42.88565238 60.05575009 47.90858459 60.05102539 C59.49007427 60.03896668 71.07154121 60.01698822 82.65301514 59.99479675 C93.24280467 59.97458632 103.83258618 59.95650942 114.422391 59.94658184 C119.40697975 59.94162046 124.39152725 59.93179054 129.37609947 59.91815186 C132.4926603 59.91064297 135.60921563 59.90736661 138.7257843 59.9051857 C140.16118265 59.90332795 141.59658007 59.89975602 143.03196907 59.89425278 C164.62826171 59.81413085 164.62826171 59.81413085 169 62 C169 84.77 169 107.54 169 131 C168.67 131 168.34 131 168 131 C168 108.56 168 86.12 168 63 C112.56 63 57.12 63 0 63 C-0.79766958 59.01165209 -1.0997767 56.08861179 -1.02172852 52.1081543 C-1.00163223 50.94732834 -0.98153595 49.78650238 -0.96083069 48.59049988 C-0.93379562 47.34762711 -0.90676056 46.10475433 -0.87890625 44.82421875 C-0.85529526 43.54392288 -0.83168427 42.26362701 -0.80735779 40.9445343 C-0.74474943 37.55294306 -0.67561801 34.16151539 -0.60510254 30.77008057 C-0.53420806 27.30447796 -0.46951778 23.83876007 -0.40429688 20.37304688 C-0.27523752 13.58191078 -0.13997708 6.79091936 0 0 Z " fill="#BD9FC6" transform="translate(241,204)"/>
<path d="M0 0 C0.33 0 0.66 0 1 0 C1 55.77 1 111.54 1 169 C39.26468777 169.03764715 39.26468777 169.03764715 77.52290344 168.75367355 C81.17355999 168.70839741 84.82424634 168.66826199 88.47497559 168.62930298 C98.80421001 168.51893161 109.13338098 168.4052965 119.46240234 168.27636719 C125.893608 168.19644649 132.32485544 168.12618008 138.75624084 168.06242752 C141.17729355 168.03656542 143.59831007 168.0070392 146.01927185 167.97373581 C149.34941202 167.92823553 152.67945723 167.89499631 156.00976562 167.86474609 C156.99935776 167.8482048 157.98894989 167.83166351 159.00852966 167.81462097 C159.90664871 167.80895615 160.80476776 167.80329132 161.73010254 167.79745483 C162.51136757 167.7882369 163.2926326 167.77901897 164.09757233 167.76952171 C166 168 166 168 168 170 C128.37702975 170.75442489 88.75331368 171.20032464 49.125 171.5625 C47.91054451 171.5736018 46.69608902 171.5847036 45.44483185 171.59614182 C30.29658537 171.7342912 15.1483084 171.86882223 0 172 C-1.1561339 168.53159829 -1.10670989 165.88351504 -1.08229065 162.2233429 C-1.07906152 161.53065927 -1.07583239 160.83797565 -1.07250541 160.12430161 C-1.06042003 157.79806269 -1.04104934 155.4719412 -1.02172852 153.14575195 C-1.01158682 151.48030859 -1.00189302 149.81486246 -0.99261475 148.14941406 C-0.96612285 143.62283837 -0.93334554 139.09632718 -0.89946485 134.56980157 C-0.86513263 129.84125025 -0.83654607 125.11266434 -0.80735779 120.38407898 C-0.7511939 111.42745058 -0.68984051 102.4708655 -0.62663645 93.51428431 C-0.55493965 83.3185454 -0.48900712 73.12277179 -0.42356598 62.92699111 C-0.28880486 41.95128233 -0.1467815 20.97562788 0 0 Z " fill="#9C87AF" transform="translate(222,116)"/>
<path d="M0 0 C41.25 0 82.5 0 125 0 C125.495 1.98 125.495 1.98 126 4 C125.01 4 124.02 4 123 4 C123 3.34 123 2.68 123 2 C107.82 2 92.64 2 77 2 C76.67 2.66 76.34 3.32 76 4 C75.13375 3.835 74.2675 3.67 73.375 3.5 C68.30714444 2.74920658 63.21824711 2.97479404 58.109375 3.0625 C55 3 55 3 52 2 C50.47124944 1.92118094 48.93915627 1.89994082 47.40844727 1.91479492 C46.01669029 1.9255732 46.01669029 1.9255732 44.59681702 1.93656921 C43.59678146 1.95105606 42.59674591 1.96554291 41.56640625 1.98046875 C40.02218239 2.0016552 40.02218239 2.0016552 38.44676208 2.02326965 C36.26873846 2.05638862 34.09076201 2.09274425 31.9128418 2.13208008 C28.579237 2.18722314 25.2460351 2.21582233 21.91210938 2.24414062 C19.79684669 2.27959979 17.68161006 2.31665606 15.56640625 2.35546875 C14.06938927 2.36201729 14.06938927 2.36201729 12.54212952 2.36869812 C11.1456443 2.4031176 11.1456443 2.4031176 9.72094727 2.43823242 C8.90392838 2.45013107 8.08690948 2.46202972 7.24513245 2.47428894 C4.06387072 3.21920021 2.91533472 4.3686856 1 7 C0.38337737 10.18277223 0.38337737 10.18277223 0.45410156 13.78808594 C0.44376389 14.46166641 0.43342621 15.13524689 0.42277527 15.82923889 C0.39335994 18.04786197 0.39184849 20.2655723 0.390625 22.484375 C0.37564234 24.0256728 0.35891501 25.56695454 0.34051514 27.10821533 C0.2968383 31.15896341 0.27684202 35.20949493 0.26177979 39.26043701 C0.24220973 43.39641121 0.20023967 47.53215149 0.16015625 51.66796875 C0.08485064 59.77858463 0.03456156 67.88910866 0 76 C-0.33 76 -0.66 76 -1 76 C-1.02313874 66.38614362 -1.04092293 56.77229678 -1.05181217 47.15841866 C-1.05703764 42.6946324 -1.06412921 38.23086516 -1.07543945 33.76708984 C-1.08628024 29.46179898 -1.09227938 25.15652644 -1.09487724 20.85122299 C-1.09672933 19.20613186 -1.10034584 17.56104177 -1.10573006 15.9159584 C-1.11295628 13.61728982 -1.11399027 11.31869759 -1.11352539 9.02001953 C-1.115746 7.7098587 -1.11796661 6.39969788 -1.12025452 5.04983521 C-1 2 -1 2 0 0 Z " fill="#8D7E9D" transform="translate(145,66)"/>
<path d="M0 0 C0.66 0 1.32 0 2 0 C2 9.9 2 19.8 2 30 C-0.28501825 31.14250912 -1.51914417 31.11914241 -4.05673409 31.10743046 C-4.9106647 31.10593811 -5.76459532 31.10444576 -6.64440262 31.10290819 C-7.58796832 31.0961044 -8.53153403 31.08930061 -9.50369263 31.08229065 C-10.50178825 31.07906152 -11.49988388 31.07583239 -12.52822483 31.07250541 C-15.89401717 31.06038024 -19.25972991 31.04101787 -22.62548828 31.02172852 C-25.02969182 31.01159103 -27.43389726 31.00189679 -29.83810425 30.99261475 C-35.02517519 30.97158632 -40.21222199 30.94745648 -45.39926529 30.92053413 C-52.89891493 30.88161398 -60.39858112 30.84824311 -67.89826308 30.81623887 C-80.06517031 30.7641664 -92.23205226 30.70758846 -104.39892578 30.64819336 C-116.21987931 30.59049655 -128.04083965 30.53491159 -139.86181641 30.48217773 C-140.95426862 30.47730316 -140.95426862 30.47730316 -142.06879057 30.4723301 C-145.72236253 30.45604074 -149.37593468 30.43979301 -153.02950692 30.42356598 C-183.35303594 30.28883276 -213.67652647 30.14671964 -244 30 C-243.505 28.515 -243.505 28.515 -243 27 C-243 27.66 -243 28.32 -243 29 C-163.14 28.67 -83.28 28.34 -1 28 C0.33333333 25 0.33333333 25 -1 22 C-0.91234003 20.14217409 -0.75783012 18.2871074 -0.5625 16.4375 C-0.03966813 10.93435941 0.10998987 5.5239357 0 0 Z " fill="#E9D8F2" transform="translate(389,383)"/>
<path d="M0 0 C0.91007812 0.10183594 1.82015625 0.20367187 2.7578125 0.30859375 C3.45648438 0.39238281 4.15515625 0.47617188 4.875 0.5625 C4.545 1.2225 4.215 1.8825 3.875 2.5625 C0.575 2.5625 -2.725 2.5625 -6.125 2.5625 C-5.795 81.7625 -5.465 160.9625 -5.125 242.5625 C-3.145 242.5625 -1.165 242.5625 0.875 242.5625 C0.215 242.8925 -0.445 243.2225 -1.125 243.5625 C-1.558125 244.5525 -1.558125 244.5525 -2 245.5625 C-2.556875 246.5525 -2.556875 246.5525 -3.125 247.5625 C-4.445 247.8925 -5.765 248.2225 -7.125 248.5625 C-7.125 166.7225 -7.125 84.8825 -7.125 0.5625 C-4.50184968 -0.74907516 -2.89466564 -0.33399988 0 0 Z " fill="#DCCBE6" transform="translate(103.125,115.4375)"/>
<path d="M0 0 C12.32686367 -0.02323169 24.65372207 -0.04097011 36.98060322 -0.05181217 C42.70525705 -0.05701738 48.42989584 -0.06407189 54.15454102 -0.07543945 C59.68532139 -0.08635258 65.21608735 -0.09229462 70.74687767 -0.09487724 C72.85064101 -0.09671636 74.95440362 -0.10030756 77.05816078 -0.10573006 C104.65202645 -0.17398677 104.65202645 -0.17398677 109 2 C109 24.77 109 47.54 109 71 C108.67 71 108.34 71 108 71 C108 48.56 108 26.12 108 3 C99.42 3 90.84 3 82 3 C80.35 2.67 78.7 2.34 77 2 C75.20169233 1.93181772 73.4010227 1.91508846 71.6015625 1.9375 C70.50408691 1.94587891 69.40661133 1.95425781 68.27587891 1.96289062 C67.07108887 1.97513672 65.86629883 1.98738281 64.625 2 C50.28561018 2.08034295 35.96055253 1.82283499 21.625 1.5 C20.5535675 1.47599121 19.48213501 1.45198242 18.37823486 1.42724609 C12.25205078 1.28915949 6.12598826 1.14650627 0 1 C0 0.67 0 0.34 0 0 Z " fill="#D7C9D8" transform="translate(301,264)"/>
<path d="M0 0 C1.00711716 -0.00128164 1.00711716 -0.00128164 2.03458011 -0.00258917 C4.2947985 -0.00424237 6.55494343 0.00127479 8.81515503 0.00672913 C10.43119302 0.00701106 12.04723113 0.00685315 13.66326904 0.00628662 C18.05971576 0.00599888 22.45613538 0.01189183 26.85257578 0.01886058 C31.44368764 0.02509801 36.03480008 0.02569823 40.62591553 0.02688599 C49.32401651 0.02999815 58.02210496 0.03820999 66.72020042 0.04823548 C76.62090315 0.05940018 86.52160647 0.06490797 96.42231393 0.06993091 C116.79268853 0.08039269 137.16305185 0.09798992 157.53341675 0.12025452 C157.53341675 0.45025452 157.53341675 0.78025452 157.53341675 1.12025452 C103.74341675 1.12025452 49.95341675 1.12025452 -5.46658325 1.12025452 C-5.13658325 2.11025452 -4.80658325 3.10025452 -4.46658325 4.12025452 C-5.40408325 6.30775452 -5.40408325 6.30775452 -6.46658325 8.12025452 C-7.78658325 7.79025452 -9.10658325 7.46025452 -10.46658325 7.12025452 C-10.73470825 7.88337952 -11.00283325 8.64650452 -11.27908325 9.43275452 C-12.44387215 12.0688557 -13.12655727 13.47356957 -15.46658325 15.12025452 C-18.15408325 15.30775452 -18.15408325 15.30775452 -20.46658325 15.12025452 C-19.04295833 13.45935877 -17.61899591 11.79877256 -16.19314575 10.13978577 C-15.0560311 8.8097218 -13.92562022 7.47389259 -12.80252075 6.13197327 C-12.27916138 5.50935608 -11.755802 4.88673889 -11.21658325 4.24525452 C-10.737052 3.67033264 -10.25752075 3.09541077 -9.76345825 2.50306702 C-6.90431248 -0.54554022 -3.98477683 -0.00304181 0 0 Z " fill="#E0CCE8" transform="translate(227.46658325195313,334.87974548339844)"/>
<path d="M0 0 C4.47915328 -0.02886338 8.95828291 -0.04675187 13.4375 -0.0625 C14.71689453 -0.07087891 15.99628906 -0.07925781 17.31445312 -0.08789062 C19.13686523 -0.09272461 19.13686523 -0.09272461 20.99609375 -0.09765625 C22.12200928 -0.10289307 23.2479248 -0.10812988 24.40795898 -0.11352539 C27 0 27 0 28 1 C28.0942174 3.11681317 28.11742761 5.23680758 28.11352539 7.35571289 C28.11367142 8.01910172 28.11381744 8.68249054 28.1139679 9.36598206 C28.11326881 11.56823956 28.10547665 13.77041345 28.09765625 15.97265625 C28.09579206 17.49580336 28.09436816 19.01895107 28.09336853 20.542099 C28.08954346 24.55837651 28.07971328 28.57461808 28.06866455 32.59088135 C28.05845019 36.68623366 28.05387086 40.78159176 28.04882812 44.87695312 C28.038091 52.91798528 28.02101472 60.95898817 28 69 C26 67 26 67 25.75949097 64.32980347 C25.7661528 62.63103561 25.7661528 62.63103561 25.77294922 60.89794922 C25.77310028 59.61677216 25.77325134 58.33559509 25.77340698 57.01559448 C25.78362105 55.61195726 25.79405305 54.2083216 25.8046875 52.8046875 C25.80841709 51.37265215 25.81126431 49.94061425 25.81326294 48.50857544 C25.82090373 44.73721283 25.84055592 40.96600396 25.8626709 37.19470215 C25.88311981 33.34727051 25.8922626 29.49981406 25.90234375 25.65234375 C25.9238015 18.10149236 25.95794268 10.55076771 26 3 C24.92516357 3.00785522 24.92516357 3.00785522 23.82861328 3.01586914 C20.59408438 3.03660667 17.35956944 3.04964984 14.125 3.0625 C12.43310547 3.07506836 12.43310547 3.07506836 10.70703125 3.08789062 C9.63066406 3.09111328 8.55429688 3.09433594 7.4453125 3.09765625 C6.45031738 3.10289307 5.45532227 3.10812988 4.43017578 3.11352539 C2 3 2 3 0 2 C0 1.34 0 0.68 0 0 Z " fill="#FDECF9" transform="translate(194,115)"/>
<path d="M0 0 C0.64461182 -0.00014603 1.28922363 -0.00029205 1.95336914 -0.0004425 C4.06351196 0.00024878 6.17356419 0.00800406 8.28369141 0.01586914 C9.7548518 0.01773611 11.22601283 0.0191587 12.69717407 0.02015686 C16.55391175 0.02396006 20.41061129 0.03377141 24.26733398 0.04486084 C28.20897913 0.05512237 32.15063048 0.05966461 36.09228516 0.06469727 C43.81495872 0.0753958 51.53760095 0.09244562 59.26025391 0.11352539 C59.75525391 2.09352539 59.75525391 2.09352539 60.26025391 4.11352539 C59.27025391 4.11352539 58.28025391 4.11352539 57.26025391 4.11352539 C57.26025391 3.45352539 57.26025391 2.79352539 57.26025391 2.11352539 C42.08025391 2.11352539 26.90025391 2.11352539 11.26025391 2.11352539 C10.93025391 2.77352539 10.60025391 3.43352539 10.26025391 4.11352539 C9.39400391 3.94852539 8.52775391 3.78352539 7.63525391 3.61352539 C2.53588922 2.84599215 -2.58850963 3.1371376 -7.72802734 3.27368164 C-10.73974609 3.11352539 -10.73974609 3.11352539 -12.73974609 1.11352539 C-8.43566083 0.29084361 -4.37930148 -0.00838947 0 0 Z " fill="#B8A5BD" transform="translate(210.73974609375,65.886474609375)"/>
<path d="M0 0 C0.99 0.66 1.98 1.32 3 2 C5.69194596 2.26101742 5.69194596 2.26101742 8.7734375 2.16015625 C9.97411865 2.14855469 11.1747998 2.13695312 12.41186523 2.125 C13.71969971 2.104375 15.02753418 2.08375 16.375 2.0625 C19.16533439 2.03485666 21.9556588 2.01767436 24.74609375 2.00390625 C25.48036087 1.99996857 26.21462799 1.99603088 26.97114563 1.99197388 C36.13071224 1.96343654 45.28268688 2.2305703 54.4375 2.5 C55.26779724 2.52409943 56.09809448 2.54819885 56.95355225 2.57302856 C61.63588975 2.70958948 66.31800973 2.85202754 71 3 C71 3.33 71 3.66 71 4 C46.25 4 21.5 4 -4 4 C-4.66 5.32 -5.32 6.64 -6 8 C-6.99 8.495 -6.99 8.495 -8 9 C-8 8.34 -8 7.68 -8 7 C-8.66 7 -9.32 7 -10 7 C-9.67 6.01 -9.34 5.02 -9 4 C-8.01 4 -7.02 4 -6 4 C-5.67 3.01 -5.34 2.02 -5 1 C-3 0 -3 0 0 0 Z " fill="#FDEBFE" transform="translate(238,360)"/>
<path d="M0 0 C0.33 0 0.66 0 1 0 C1 6.93 1 13.86 1 21 C2.32 21.33 3.64 21.66 5 22 C3 32 3 32 2.47265625 34.30859375 C1.96894294 37.17684555 1.88677742 39.82737747 1.90234375 42.73828125 C1.90556641 43.80498047 1.90878906 44.87167969 1.91210938 45.97070312 C1.92048828 47.07349609 1.92886719 48.17628906 1.9375 49.3125 C1.94201172 50.43462891 1.94652344 51.55675781 1.95117188 52.71289062 C1.96292687 55.4753151 1.97935923 58.23762998 2 61 C2.99 61.33 3.98 61.66 5 62 C5 62.33 5 62.66 5 63 C3.35 63 1.7 63 0 63 C-0.8687991 59.28577021 -1.096427 55.91777691 -1.02172852 52.1081543 C-1.00163223 50.94732834 -0.98153595 49.78650238 -0.96083069 48.59049988 C-0.93379562 47.34762711 -0.90676056 46.10475433 -0.87890625 44.82421875 C-0.85529526 43.54392288 -0.83168427 42.26362701 -0.80735779 40.9445343 C-0.74474943 37.55294306 -0.67561801 34.16151539 -0.60510254 30.77008057 C-0.53420806 27.30447796 -0.46951778 23.83876007 -0.40429688 20.37304688 C-0.27523752 13.58191078 -0.13997708 6.79091936 0 0 Z " fill="#C6B1CB" transform="translate(241,204)"/>
<path d="M0 0 C0.33 0 0.66 0 1 0 C1.02685412 2.31243792 1.04632841 4.6249627 1.0625 6.9375 C1.07410156 8.22527344 1.08570313 9.51304687 1.09765625 10.83984375 C1 14 1 14 0 15 C-1.5348297 15.09319449 -3.07392082 15.117458 -4.61157227 15.11352539 C-5.59251358 15.11344986 -6.5734549 15.11337433 -7.5841217 15.11329651 C-8.6507756 15.10813522 -9.7174295 15.10297394 -10.81640625 15.09765625 C-12.44569313 15.09553383 -12.44569313 15.09553383 -14.1078949 15.09336853 C-17.59279075 15.08775048 -21.07762342 15.07519492 -24.5625 15.0625 C-26.91861887 15.05748733 -29.27473874 15.05292402 -31.63085938 15.04882812 C-37.42059464 15.03777519 -43.21029281 15.02101951 -49 15 C-49 14.67 -49 14.34 -49 14 C-48.39937744 13.97494385 -47.79875488 13.9498877 -47.17993164 13.92407227 C-44.47388563 13.8084472 -41.76821717 13.68557064 -39.0625 13.5625 C-38.11697266 13.52318359 -37.17144531 13.48386719 -36.19726562 13.44335938 C-35.29814453 13.40146484 -34.39902344 13.35957031 -33.47265625 13.31640625 C-32.64000244 13.27974854 -31.80734863 13.24309082 -30.94946289 13.20532227 C-28.99661142 13.20632897 -28.99661142 13.20632897 -28 12 C-26.16867112 11.94920814 -24.33542781 11.96452225 -22.50390625 12.0078125 C-21.38822266 12.02457031 -20.27253906 12.04132813 -19.12304688 12.05859375 C-16.75309508 12.10279472 -14.38327657 12.15485376 -12.01367188 12.21484375 C-10.89669922 12.22902344 -9.77972656 12.24320312 -8.62890625 12.2578125 C-7.59838135 12.2798877 -6.56785645 12.30196289 -5.50610352 12.32470703 C-4.26558228 12.16397705 -4.26558228 12.16397705 -3 12 C-2.34 11.01 -1.68 10.02 -1 9 C-1.66 8.67 -2.32 8.34 -3 8 C-1.125 2.25 -1.125 2.25 0 0 Z " fill="#BCA8C5" transform="translate(438,350)"/>
<path d="M0 0 C1.16337891 0.00322266 2.32675781 0.00644531 3.52539062 0.00976562 C4.74033203 0.01814453 5.95527344 0.02652344 7.20703125 0.03515625 C8.43357422 0.03966797 9.66011719 0.04417969 10.92382812 0.04882812 C13.95577793 0.0606256 16.98763031 0.07708704 20.01953125 0.09765625 C20.51453125 2.57265625 20.51453125 2.57265625 21.01953125 5.09765625 C20.52453125 4.10765625 20.52453125 4.10765625 20.01953125 3.09765625 C17.4921989 2.44210506 17.4921989 2.44210506 15.01953125 2.09765625 C14.68953125 2.75765625 14.35953125 3.41765625 14.01953125 4.09765625 C14.01953125 3.43765625 14.01953125 2.77765625 14.01953125 2.09765625 C3.62453125 2.59265625 3.62453125 2.59265625 -6.98046875 3.09765625 C-6.98046875 5.07765625 -6.98046875 7.05765625 -6.98046875 9.09765625 C-5.09969002 11.01022337 -5.09969002 11.01022337 -2.98046875 12.09765625 C-3.98046875 14.09765625 -3.98046875 14.09765625 -4.98046875 15.09765625 C-6.83819037 15.00781324 -8.6929486 14.85153764 -10.54296875 14.66015625 C-11.55488281 14.55832031 -12.56679688 14.45648438 -13.609375 14.3515625 C-14.39183594 14.26777344 -15.17429687 14.18398438 -15.98046875 14.09765625 C-15.98046875 13.76765625 -15.98046875 13.43765625 -15.98046875 13.09765625 C-13.67046875 13.09765625 -11.36046875 13.09765625 -8.98046875 13.09765625 C-9.25890625 11.51984375 -9.25890625 11.51984375 -9.54296875 9.91015625 C-9.93126206 6.52645743 -9.8629436 4.33339737 -8.98046875 1.09765625 C-5.74295197 0.01848399 -3.40295104 -0.01659976 0 0 Z " fill="#A498A5" transform="translate(369.98046875,370.90234375)"/>
<path d="M0 0 C1.38120529 0.0001133 1.38120529 0.0001133 2.79031372 0.00022888 C4.28412064 0.00797081 4.28412064 0.00797081 5.80810547 0.01586914 C7.33538773 0.01799156 7.33538773 0.01799156 8.89352417 0.02015686 C12.15414332 0.02576639 15.41469448 0.03832051 18.67529297 0.05102539 C20.88232323 0.05603916 23.08935456 0.06060228 25.29638672 0.06469727 C30.71437877 0.07573891 36.13233101 0.09248634 41.55029297 0.11352539 C41.55029297 0.44352539 41.55029297 0.77352539 41.55029297 1.11352539 C26.70029297 1.11352539 11.85029297 1.11352539 -3.44970703 1.11352539 C-3.11970703 2.10352539 -2.78970703 3.09352539 -2.44970703 4.11352539 C-3.38720703 6.30102539 -3.38720703 6.30102539 -4.44970703 8.11352539 C-5.76970703 7.78352539 -7.08970703 7.45352539 -8.44970703 7.11352539 C-8.71783203 7.87665039 -8.98595703 8.63977539 -9.26220703 9.42602539 C-10.42699593 12.06212657 -11.10968105 13.46684044 -13.44970703 15.11352539 C-16.13720703 15.30102539 -16.13720703 15.30102539 -18.44970703 15.11352539 C-17.02608211 13.45262964 -15.60211969 11.79204344 -14.17626953 10.13305664 C-13.03915488 8.80299267 -11.908744 7.46716346 -10.78564453 6.12524414 C-10.26228516 5.50262695 -9.73892578 4.88000977 -9.19970703 4.23852539 C-8.72017578 3.66360352 -8.24064453 3.08868164 -7.74658203 2.49633789 C-5.3392359 -0.07053117 -3.36623361 -0.00919736 0 0 Z " fill="#D8C6E3" transform="translate(225.44970703125,334.886474609375)"/>
<path d="M0 0 C0.33 0 0.66 0 1 0 C1.04958948 4.46572364 1.085809 8.93129961 1.10986328 13.3972168 C1.11989545 14.91514886 1.13352438 16.43306173 1.15087891 17.95092773 C1.17525035 20.1379064 1.18651095 22.32462864 1.1953125 24.51171875 C1.20578613 25.82615967 1.21625977 27.14060059 1.22705078 28.49487305 C1.0096543 31.85096041 0.54675425 34.03892602 -1 37 C-3.125 38.8125 -3.125 38.8125 -5 40 C-4.690625 39.278125 -4.38125 38.55625 -4.0625 37.8125 C-2.35182187 33.28423436 -1.86635904 29.03959859 -1.71875 24.21875 C-1.66267578 22.58486328 -1.66267578 22.58486328 -1.60546875 20.91796875 C-1.57066406 19.79003906 -1.53585938 18.66210938 -1.5 17.5 C-1.43088913 15.26029599 -1.35810692 13.02070158 -1.28125 10.78125 C-1.25095703 9.79189453 -1.22066406 8.80253906 -1.18945312 7.78320312 C-1.00735687 5.10807768 -0.58934439 2.61268061 0 0 Z " fill="#E5D7F1" transform="translate(174,252)"/>
<path d="M0 0 C-0.33 0.66 -0.66 1.32 -1 2 C-1.66 1.67 -2.32 1.34 -3 1 C-3 1.66 -3 2.32 -3 3 C-4.91503674 3.22281874 -6.83216506 3.42771076 -8.75 3.625 C-9.81734375 3.74101563 -10.8846875 3.85703125 -11.984375 3.9765625 C-15.12066235 4.00093779 -16.33397177 3.48616893 -19 2 C-20.19625 2 -21.3925 2 -22.625 2 C-23.73875 2 -24.8525 2 -26 2 C-26.66 1.34 -27.32 0.68 -28 0 C-3.416122 -1.708061 -3.416122 -1.708061 0 0 Z " fill="#E6D6E8" transform="translate(137,116)"/>
<path d="M0 0 C0.99 0.66 1.98 1.32 3 2 C5.33160941 2.08967728 7.66796188 2.0777346 10 2 C16.66666667 1.77777778 16.66666667 1.77777778 20 4 C12.08 4 4.16 4 -4 4 C-4.66 5.32 -5.32 6.64 -6 8 C-6.99 8.495 -6.99 8.495 -8 9 C-8 8.34 -8 7.68 -8 7 C-8.66 7 -9.32 7 -10 7 C-9.67 6.01 -9.34 5.02 -9 4 C-8.01 4 -7.02 4 -6 4 C-5.67 3.01 -5.34 2.02 -5 1 C-3 0 -3 0 0 0 Z " fill="#FAE8FC" transform="translate(238,360)"/>
<path d="M0 0 C0.33 0.66 0.66 1.32 1 2 C0.67 2.66 0.34 3.32 0 4 C0.66 4.33 1.32 4.66 2 5 C1.01 5.33 0.02 5.66 -1 6 C-2.95542188 8.98459129 -3 10.26414791 -3 14 C-3.78375 13.979375 -4.5675 13.95875 -5.375 13.9375 C-7.98114961 13.81315937 -7.98114961 13.81315937 -10 15 C-10.66 14.34 -11.32 13.68 -12 13 C-11.319375 12.34 -10.63875 11.68 -9.9375 11 C-6.43274653 7.50531766 -3.22778212 3.74869221 0 0 Z " fill="#D1C3D6" transform="translate(143,274)"/>
<path d="M0 0 C8.91 0 17.82 0 27 0 C27 0.99 27 1.98 27 3 C22.87501462 3.02892385 18.75005515 3.04677267 14.625 3.0625 C12.8615625 3.07506836 12.8615625 3.07506836 11.0625 3.08789062 C9.38027344 3.09272461 9.38027344 3.09272461 7.6640625 3.09765625 C6.10872803 3.10551147 6.10872803 3.10551147 4.52197266 3.11352539 C2 3 2 3 0 2 C0 1.34 0 0.68 0 0 Z " fill="#D7C4DD" transform="translate(194,115)"/>
<path d="M0 0 C0.33 0.99 0.66 1.98 1 3 C-0.4515549 4.67257355 -1.91144409 6.33791758 -3.375 8 C-4.59316406 9.3921875 -4.59316406 9.3921875 -5.8359375 10.8125 C-6.55007812 11.534375 -7.26421875 12.25625 -8 13 C-8.66 13 -9.32 13 -10 13 C-10.66 14.32 -11.32 15.64 -12 17 C-12.33 16.01 -12.66 15.02 -13 14 C-12.34 13.01 -11.68 12.02 -11 11 C-10.31731862 9.67479497 -9.6492959 8.34187818 -9 7 C-7.48065294 3.96130589 -5.01995228 3.35589694 -2 2 C-1.34 2 -0.68 2 0 2 C0 1.34 0 0.68 0 0 Z " fill="#DCCDE2" transform="translate(165,292)"/>
<path d="M0 0 C0.33 0 0.66 0 1 0 C2.25981943 8.6612586 2.09020653 17.27001243 2 26 C2.99 26.33 3.98 26.66 5 27 C5 27.33 5 27.66 5 28 C3.35 28 1.7 28 0 28 C-0.85319945 24.37749325 -1.06555517 21.19270837 -0.87890625 17.48046875 C-0.83056641 16.45888672 -0.78222656 15.43730469 -0.73242188 14.38476562 C-0.67634766 13.32966797 -0.62027344 12.27457031 -0.5625 11.1875 C-0.51029297 10.11306641 -0.45808594 9.03863281 -0.40429688 7.93164062 C-0.2750247 5.28743696 -0.14007564 2.64364973 0 0 Z " fill="#AA96B1" transform="translate(241,239)"/>
<path d="M0 0 C2.00720923 0.28674418 4.0085944 0.61866701 6 1 C-3.38709677 12.19354839 -3.38709677 12.19354839 -7 14 C-6.690625 13.278125 -6.38125 12.55625 -6.0625 11.8125 C-5.07439461 9.19692691 -4.4712246 6.74881018 -4 4 C-3.01 4 -2.02 4 -1 4 C-1 3.01 -1 2.02 -1 1 C-0.67 0.67 -0.34 0.34 0 0 Z " fill="#D0B6DA" transform="translate(113,342)"/>
<path d="M0 0 C0.99 0.33 1.98 0.66 3 1 C2.84660156 2.22589844 2.69320312 3.45179688 2.53515625 4.71484375 C1.87540939 10.65256546 1.65692263 16.59492399 1.4375 22.5625 C1.39431641 23.66658203 1.35113281 24.77066406 1.30664062 25.90820312 C1.20155613 28.60537185 1.09940587 31.30261703 1 34 C0.34 33.67 -0.32 33.34 -1 33 C-0.67 22.11 -0.34 11.22 0 0 Z " fill="#F5EEF2" transform="translate(172,247)"/>
<path d="M0 0 C0.66 0 1.32 0 2 0 C2.05786668 3.79160297 2.09355054 7.58309311 2.125 11.375 C2.14175781 12.45523437 2.15851563 13.53546875 2.17578125 14.6484375 C2.18222656 15.6796875 2.18867188 16.7109375 2.1953125 17.7734375 C2.20578613 18.72653809 2.21625977 19.67963867 2.22705078 20.66162109 C2 23 2 23 0 25 C-1.10053857 21.69838428 -0.92476148 19.86780319 -0.5625 16.4375 C-0.03966813 10.93435941 0.10998987 5.5239357 0 0 Z " fill="#F0DCF5" transform="translate(389,383)"/>
<path d="M0 0 C0.33 0 0.66 0 1 0 C1.12375 1.8871875 1.12375 1.8871875 1.25 3.8125 C1.66557143 7.33811212 1.66557143 7.33811212 4.0625 10 C4.701875 10.33 5.34125 10.66 6 11 C5 13 5 13 4 14 C2.14227838 13.91015699 0.28752015 13.75388139 -1.5625 13.5625 C-2.57441406 13.46066406 -3.58632813 13.35882813 -4.62890625 13.25390625 C-5.41136719 13.17011719 -6.19382812 13.08632813 -7 13 C-7 12.67 -7 12.34 -7 12 C-4.69 12 -2.38 12 0 12 C-0.2784375 10.4221875 -0.2784375 10.4221875 -0.5625 8.8125 C-0.95079331 5.42880118 -0.88247485 3.23574112 0 0 Z " fill="#C5B5C9" transform="translate(361,372)"/>
<path d="M0 0 C1.5 1.375 1.5 1.375 3 3 C3 3.66 3 4.32 3 5 C2.34 5 1.68 5 1 5 C1.33 6.65 1.66 8.3 2 10 C0 9 0 9 -1 7 C-4.39914975 8.13304992 -5.05254451 9.12518475 -7 12 C-7.99 11.67 -8.98 11.34 -10 11 C-9.278125 10.29875 -8.55625 9.5975 -7.8125 8.875 C-5.00176187 6.07229255 -2.50483774 3.07737208 0 0 Z " fill="#E6DBE9" transform="translate(205,350)"/>
<path d="M0 0 C0.33 0 0.66 0 1 0 C1 2.31 1 4.62 1 7 C-1.94616538 8.47308269 -4.47762594 8.00294692 -7.7578125 7.87890625 C-8.42086395 7.85529526 -9.08391541 7.83168427 -9.76705933 7.80735779 C-11.88659129 7.73073184 -14.00575685 7.64670357 -16.125 7.5625 C-17.56117994 7.50927819 -18.9973778 7.4565378 -20.43359375 7.40429688 C-23.95595436 7.27511856 -27.47802352 7.1392997 -31 7 C-31 6.67 -31 6.34 -31 6 C-21.43 5.67 -11.86 5.34 -2 5 C-1.34 3.35 -0.68 1.7 0 0 Z " fill="#DFCBE6" transform="translate(390,406)"/>
<path d="M0 0 C0.33 0.66 0.66 1.32 1 2 C0.25 4.0625 0.25 4.0625 -1 6 C-1.99 6.33 -2.98 6.66 -4 7 C-4.6496875 8.485 -4.6496875 8.485 -5.3125 10 C-5.869375 10.99 -6.42625 11.98 -7 13 C-10.1875 13.875 -10.1875 13.875 -13 14 C-8.88380164 9.08064098 -4.59589638 4.47352044 0 0 Z " fill="#D2C0D8" transform="translate(185,371)"/>
<path d="M0 0 C2.0625 0.4375 2.0625 0.4375 4 1 C0.6189962 5.13621084 -2.66590534 8.81316569 -7 12 C-7.33 10.68 -7.66 9.36 -8 8 C-5.32521756 6.3372974 -3.0004856 5.00016187 0 4 C-0.33 3.01 -0.66 2.02 -1 1 C-0.67 0.67 -0.34 0.34 0 0 Z " fill="#DCCCE3" transform="translate(148,308)"/>
<path d="M0 0 C0.66 0 1.32 0 2 0 C2 0.99 2 1.98 2 3 C8.27 3 14.54 3 21 3 C21 3.33 21 3.66 21 4 C19.91460937 4.06058594 18.82921875 4.12117187 17.7109375 4.18359375 C16.26561514 4.26806064 14.82030318 4.35270551 13.375 4.4375 C12.66214844 4.47681641 11.94929688 4.51613281 11.21484375 4.55664062 C7.08196318 4.80309681 3.07730976 5.23470053 -1 6 C-1.33 4.68 -1.66 3.36 -2 2 C-1.34 2 -0.68 2 0 2 C0 1.34 0 0.68 0 0 Z " fill="#E6CFE6" transform="translate(269,233)"/>
<path d="M0 0 C0.33 0 0.66 0 1 0 C1 4.62 1 9.24 1 14 C0.67 13.34 0.34 12.68 0 12 C-0.66 12 -1.32 12 -2 12 C-3.26198237 7.70925993 -2.68038993 5.10761984 -1 1 C-0.67 0.67 -0.34 0.34 0 0 Z " fill="#E8D8EB" transform="translate(270,130)"/>
<path d="M0 0 C1 2 1 2 0.25 4.4375 C-0.97326131 6.94518568 -1.72860149 8.40160845 -4 10 C-6.6875 10.1875 -6.6875 10.1875 -9 10 C-8.06409496 8.8944811 -7.12620142 7.79064547 -6.1875 6.6875 C-5.66542969 6.07261719 -5.14335937 5.45773437 -4.60546875 4.82421875 C-3.12827531 3.14575321 -1.59960869 1.56117966 0 0 Z " fill="#CCB9D4" transform="translate(216,340)"/>
<path d="M0 0 C0.66 0.66 1.32 1.32 2 2 C-3.5538144 3.20082474 -9.34071124 3.54558503 -15 3 C-15.66 2.34 -16.32 1.68 -17 1 C-11.4461856 -0.20082474 -5.65928876 -0.54558503 0 0 Z " fill="#F0E4F1" transform="translate(215,66)"/>
<path d="M0 0 C0.33 0 0.66 0 1 0 C1 4.62 1 9.24 1 14 C1.66 14 2.32 14 3 14 C2.67 15.32 2.34 16.64 2 18 C0.68 17.67 -0.64 17.34 -2 17 C-2 13.51971731 -1.50549355 10.25617483 -1 6.8125 C-0.814375 5.54019531 -0.62875 4.26789063 -0.4375 2.95703125 C-0.293125 1.98121094 -0.14875 1.00539063 0 0 Z " fill="#F7EDF6" transform="translate(124,278)"/>
<path d="M0 0 C0.33 0 0.66 0 1 0 C1 4.62 1 9.24 1 14 C0.34 13.34 -0.32 12.68 -1 12 C-1 11.01 -1 10.02 -1 9 C-1.66 8.67 -2.32 8.34 -3 8 C-1.125 2.25 -1.125 2.25 0 0 Z " fill="#D2C7E4" transform="translate(438,350)"/>
<path d="M0 0 C1.32 0.66 2.64 1.32 4 2 C2.48328036 6.55015893 -1.16891053 8.50057264 -5 11 C-5 9.68 -5 8.36 -5 7 C-3.02 6.01 -1.04 5.02 1 4 C0.34 3.01 -0.32 2.02 -1 1 C-0.67 0.67 -0.34 0.34 0 0 Z " fill="#C0AFC8" transform="translate(126,329)"/>
<path d="M0 0 C-0.33 0.66 -0.66 1.32 -1 2 C-1.66 1.67 -2.32 1.34 -3 1 C-3 1.66 -3 2.32 -3 3 C-5.31 3 -7.62 3 -10 3 C-10.33 2.01 -10.66 1.02 -11 0 C-7.01803543 -1.05404945 -4.01804691 -0.84098656 0 0 Z " fill="#E6C1EB" transform="translate(137,116)"/>
<path d="M0 0 C0 0.99 0 1.98 0 3 C-4.455 4.485 -4.455 4.485 -9 6 C-9 5.01 -9 4.02 -9 3 C-8.01 3 -7.02 3 -6 3 C-6 2.01 -6 1.02 -6 0 C-3.50907189 -1.24546405 -2.58919267 -0.7767578 0 0 Z " fill="#F3E1F6" transform="translate(169,290)"/>
<path d="M0 0 C0.75 1.75 0.75 1.75 1 4 C-0.625 6.25 -0.625 6.25 -3 8 C-5.75 8.25 -5.75 8.25 -8 8 C-5.33333333 5.33333333 -2.66666667 2.66666667 0 0 Z " fill="#CDB3D4" transform="translate(154,402)"/>
<path d="M0 0 C0.99 0.66 1.98 1.32 3 2 C0.61042731 5.24299151 -1.2047869 7.50902342 -5 9 C-4.5206753 4.68607774 -3.2542015 2.83430453 0 0 Z " fill="#CCBDD2" transform="translate(227,368)"/>
<path d="M0 0 C0.75 1.75 0.75 1.75 1 4 C-1.51818326 7.29300888 -4.10918157 8.70306052 -8 10 C-6.7260411 7.96166576 -5.38938077 5.96147874 -4 4 C-3.34 4 -2.68 4 -2 4 C-1.34 2.68 -0.68 1.36 0 0 Z " fill="#D1C1DA" transform="translate(194,361)"/>
<path d="M0 0 C0.99 0 1.98 0 3 0 C4 3 4 3 3.0625 5.1875 C2.5365625 6.0846875 2.5365625 6.0846875 2 7 C1.01 6.67 0.02 6.34 -1 6 C-1.8125 4.0625 -1.8125 4.0625 -2 2 C-1.34 1.34 -0.68 0.68 0 0 Z " fill="#E7DDEC" transform="translate(219,336)"/>
<path d="M0 0 C0.66 0.33 1.32 0.66 2 1 C0.75023244 4.65316671 0.32901247 5.78065836 -3 8 C-3 7.34 -3 6.68 -3 6 C-3.66 6 -4.32 6 -5 6 C-4.67 5.01 -4.34 4.02 -4 3 C-3.01 3 -2.02 3 -1 3 C-0.67 2.01 -0.34 1.02 0 0 Z " fill="#EDDFF2" transform="translate(233,361)"/>
<path d="M0 0 C0.66 0.33 1.32 0.66 2 1 C2.29296875 7.0546875 2.29296875 7.0546875 2 9 C1.01 9.66 0.02 10.32 -1 11 C-1.66 10.34 -2.32 9.68 -3 9 C-2.01 6.03 -1.02 3.06 0 0 Z " fill="#EDE7EC" transform="translate(437,297)"/>
<path d="M0 0 C0.99 0.66 1.98 1.32 3 2 C2.01 2.99 1.02 3.98 0 5 C-0.99 4.67 -1.98 4.34 -3 4 C-5.14255793 4.38932856 -5.14255793 4.38932856 -7 5 C-6.67 4.01 -6.34 3.02 -6 2 C-3.125 0.6875 -3.125 0.6875 0 0 Z " fill="#EBE2EE" transform="translate(134,287)"/>
<path d="M0 0 C0.66 0 1.32 0 2 0 C1.63076923 7.38461538 1.63076923 7.38461538 -1.5625 10.5 C-2.7690625 11.2425 -2.7690625 11.2425 -4 12 C-3.690625 11.278125 -3.38125 10.55625 -3.0625 9.8125 C-2.0730023 7.19324139 -1.51869181 4.74165672 -1 2 C-0.67 1.34 -0.34 0.68 0 0 Z " fill="#BFA7CD" transform="translate(173,280)"/>
<path d="M0 0 C0.33 0 0.66 0 1 0 C1 3.63 1 7.26 1 11 C0.01 10.67 -0.98 10.34 -2 10 C-1.85950482 8.52031676 -1.71245174 7.04125484 -1.5625 5.5625 C-1.48128906 4.73878906 -1.40007812 3.91507812 -1.31640625 3.06640625 C-1 1 -1 1 0 0 Z " fill="#FBE9FC" transform="translate(221,274)"/>
<path d="M0 0 C2.00720923 0.28674418 4.0085944 0.61866701 6 1 C5.01 2.32 4.02 3.64 3 5 C1.68 4.67 0.36 4.34 -1 4 C-1 1 -1 1 0 0 Z " fill="#C4B8CB" transform="translate(113,342)"/>
<path d="M0 0 C0.33 0.99 0.66 1.98 1 3 C-0.43359375 5.04296875 -0.43359375 5.04296875 -2.4375 7.1875 C-3.09621094 7.90292969 -3.75492188 8.61835938 -4.43359375 9.35546875 C-4.95050781 9.89816406 -5.46742188 10.44085938 -6 11 C-6 6.38461538 -6 6.38461538 -5 4 C-2.4375 2.75 -2.4375 2.75 0 2 C0 1.34 0 0.68 0 0 Z " fill="#BCA6C6" transform="translate(165,292)"/>
<path d="M0 0 C0.66 0 1.32 0 2 0 C2 3.3 2 6.6 2 10 C1.67 9.34 1.34 8.68 1 8 C0.01 7.67 -0.98 7.34 -2 7 C-1.34 4.69 -0.68 2.38 0 0 Z " fill="#F0E4F1" transform="translate(269,155)"/>
<path d="M0 0 C0 4.38968456 -2.12805101 5.76905739 -5 9 C-5.99 8.67 -6.98 8.34 -8 8 C-5.36 5.36 -2.72 2.72 0 0 Z " fill="#C6B3CE" transform="translate(171,385)"/>
<path d="M0 0 C0.66 0 1.32 0 2 0 C2.05399736 1.45792884 2.09279177 2.91642712 2.125 4.375 C2.14820313 5.18710937 2.17140625 5.99921875 2.1953125 6.8359375 C2 9 2 9 0 11 C-1.35015859 6.94952424 -0.62084998 4.2079832 0 0 Z " fill="#F5E4FA" transform="translate(389,397)"/>
<path d="M0 0 C1.98 0 3.96 0 6 0 C5.01 0.495 5.01 0.495 4 1 C2.86649466 3.01669827 2.86649466 3.01669827 2 5 C1.01 5 0.02 5 -1 5 C-0.67 3.35 -0.34 1.7 0 0 Z " fill="#E3D5E7" transform="translate(98,358)"/>
<path d="M0 0 C0.33 0 0.66 0 1 0 C1 2.64 1 5.28 1 8 C-1.97 8 -4.94 8 -8 8 C-8 7.67 -8 7.34 -8 7 C-5.69 6.34 -3.38 5.68 -1 5 C-0.67 3.35 -0.34 1.7 0 0 Z " fill="#DCC5E4" transform="translate(135,138)"/>
<path d="M0 0 C2.64 0 5.28 0 8 0 C8 0.99 8 1.98 8 3 C5.69 3 3.38 3 1 3 C0.67 2.01 0.34 1.02 0 0 Z " fill="#DACBE1" transform="translate(184,115)"/>
<path d="M0 0 C0.33 0 0.66 0 1 0 C1 3.63 1 7.26 1 11 C0.01 10.67 -0.98 10.34 -2 10 C-1.34 6.7 -0.68 3.4 0 0 Z " fill="#F6E9F7" transform="translate(270,101)"/>
<path d="M0 0 C4.62 0 9.24 0 14 0 C12.35 1.32 10.7 2.64 9 4 C9 3.01 9 2.02 9 1 C6.03 1 3.06 1 0 1 C0 0.67 0 0.34 0 0 Z " fill="#BFB4C3" transform="translate(294,384)"/>
<path d="M0 0 C0 2 0 4 0 6 C-0.66 6 -1.32 6 -2 6 C-2.33 7.32 -2.66 8.64 -3 10 C-3.66 9.34 -4.32 8.68 -5 8 C-1.125 1.125 -1.125 1.125 0 0 Z " fill="#F7F1F7" transform="translate(182,376)"/>
<path d="M0 0 C0 3.90838866 -1.50567876 5.11594107 -4 8 C-4.99 7.67 -5.98 7.34 -7 7 C-4.66666667 4.66666667 -2.33333333 2.33333333 0 0 Z " fill="#C1B1E1" transform="translate(202,354)"/>
<path d="M0 0 C1 2 1 2 0.4375 4 C-1.57302108 6.79724672 -3.74418077 7.15065585 -7 8 C-6.02133662 6.85373678 -5.04205413 5.70800212 -4.0625 4.5625 C-3.51722656 3.92441406 -2.97195312 3.28632813 -2.41015625 2.62890625 C-1.63204305 1.73008851 -0.84063472 0.84063472 0 0 Z " fill="#C0A8C7" transform="translate(185,371)"/>
<path d="M0 0 C0.103125 0.639375 0.20625 1.27875 0.3125 1.9375 C0.539375 2.618125 0.76625 3.29875 1 4 C1.99 4.33 2.98 4.66 4 5 C4 5.33 4 5.66 4 6 C2.35 6 0.7 6 -1 6 C-1.33 4.35 -1.66 2.7 -2 1 C-1.34 0.67 -0.68 0.34 0 0 Z " fill="#9B82A1" transform="translate(242,261)"/>
<path d="M0 0 C3.3 0.33 6.6 0.66 10 1 C9.67 1.66 9.34 2.32 9 3 C5.7 3 2.4 3 -1 3 C-0.67 2.01 -0.34 1.02 0 0 Z " fill="#E4D3EA" transform="translate(98,115)"/>
<path d="M0 0 C1.2380014 3.57644848 0.74926071 6.33694766 0 10 C-0.33 10 -0.66 10 -1 10 C-1 8.35 -1 6.7 -1 5 C-1.99 4.67 -2.98 4.34 -4 4 C-2.68 2.68 -1.36 1.36 0 0 Z " fill="#E7E1EE" transform="translate(438,319)"/>
<path d="M0 0 C0.99 0.33 1.98 0.66 3 1 C1.1875 4 1.1875 4 -1 7 C-1.99 7 -2.98 7 -4 7 C-3.67 6.01 -3.34 5.02 -3 4 C-2.34 3.67 -1.68 3.34 -1 3 C-0.67 2.01 -0.34 1.02 0 0 Z " fill="#F3F2EB" transform="translate(221,340)"/>
<path d="M0 0 C2.0625 0.4375 2.0625 0.4375 4 1 C2.68 2.65 1.36 4.3 0 6 C-0.38218767 4.34385343 -0.71395102 2.67542976 -1 1 C-0.67 0.67 -0.34 0.34 0 0 Z " fill="#D9CCEB" transform="translate(145,67)"/>
</svg>
